<svg width="139" height="125" viewBox="0 0 139 125" fill="none" xmlns="http://www.w3.org/2000/svg">
<path d="M110.75 55.625C110.75 49.0319 106.075 43.5181 99.8806 42.1912C102.356 38.0594 103.875 33.2812 103.875 28.125C103.875 12.9587 91.5413 0.625 76.375 0.625C65.9525 0.625 56.9738 6.51688 52.3125 15.09C47.6512 6.51688 38.6725 0.625 28.25 0.625C13.0837 0.625 0.75 12.9587 0.75 28.125C0.75 34.3262 2.895 39.9912 6.36687 44.5975C4.63114 45.8661 3.21828 47.5253 2.24251 49.441C1.26675 51.3567 0.755463 53.4751 0.75 55.625V110.625C0.75 118.208 6.91687 124.375 14.5 124.375H97C104.583 124.375 110.75 118.208 110.75 110.625V92.4956L138.25 106.246V58.1206L110.75 71.8706V55.625ZM76.375 14.375C83.9581 14.375 90.125 20.5419 90.125 28.125C90.125 35.7081 83.9581 41.875 76.375 41.875C68.7919 41.875 62.625 35.7081 62.625 28.125C62.625 20.5419 68.7919 14.375 76.375 14.375ZM28.25 14.375C35.8331 14.375 42 20.5419 42 28.125C42 35.7081 35.8331 41.875 28.25 41.875C20.6669 41.875 14.5 35.7081 14.5 28.125C14.5 20.5419 20.6669 14.375 28.25 14.375Z" fill="#EEEEEE"/>
</svg>
